<svg xmlns="http://www.w3.org/2000/svg" version="1.1" xmlns:xlink="http://www.w3.org/1999/xlink" xmlns:svgjs="http://svgjs.com/svgjs" width="600" height="700" preserveAspectRatio="none" viewBox="0 0 600 700"><g mask="url(&quot;#SvgjsMask2278&quot;)" fill="none"><rect width="600" height="700" x="0" y="0" fill="url(#SvgjsLinearGradient2279)"></rect><path d="M18.587,72.407C36.495,71.598,49.57,57.161,57.981,41.331C65.793,26.629,68.006,9.277,59.839,-5.23C51.526,-19.997,35.521,-27.996,18.587,-28.643C0.313,-29.341,-18.831,-24.119,-28.513,-8.606C-38.692,7.702,-37.159,28.575,-27.497,45.194C-17.886,61.724,-0.515,73.27,18.587,72.407" fill="rgba(28, 83, 142, 0.4)" class="triangle-float3"></path><path d="M120.281,246.439C169.429,249.456,222.822,236.341,247.674,193.832C272.695,151.034,259.366,97.083,231.618,56.001C207.148,19.773,163.997,4.788,120.281,5.224C77.451,5.651,34.484,21.29,12.724,58.183C-9.347,95.603,-4.177,141.973,17.375,179.694C39.114,217.743,76.542,243.754,120.281,246.439" fill="rgba(28, 83, 142, 0.4)" class="triangle-float3"></path><path d="M122.874,264.988C170.605,263.704,206.686,226.381,229.537,184.456C251.25,144.618,255.746,98.42,235.897,57.621C213.079,10.719,175.022,-33.749,122.874,-34.792C69.45,-35.861,26.384,5.524,1.74,52.937C-20.932,96.556,-18.598,147.79,5.786,190.475C30.381,233.529,73.308,266.321,122.874,264.988" fill="rgba(28, 83, 142, 0.4)" class="triangle-float2"></path><path d="M626.176,306.057C687.639,308.265,752.978,290.402,783.995,237.293C815.217,183.835,799.947,117.287,767.056,64.839C736.379,15.922,683.913,-14.902,626.176,-14.362C569.361,-13.83,518.229,18.247,489.79,67.434C461.32,116.676,458.623,177.234,486.848,226.617C515.281,276.365,568.913,304,626.176,306.057" fill="rgba(28, 83, 142, 0.4)" class="triangle-float3"></path><path d="M614.695,298.513C672.183,301.426,723.741,264.112,751.763,213.831C779.047,164.875,778.23,104.983,749.306,56.977C721.277,10.456,669.002,-12.904,614.695,-13.664C558.864,-14.445,499.746,3.889,473.394,53.115C448.056,100.447,472.957,154.534,499.747,201.06C526.613,247.718,560.924,295.788,614.695,298.513" fill="rgba(28, 83, 142, 0.4)" class="triangle-float2"></path><path d="M525.182,114.487C550.262,113.277,573.564,102.092,586.858,80.791C601.024,58.094,607.019,28.806,592.804,6.14C579.203,-15.547,550.724,-19.267,525.182,-17.556C502.975,-16.068,484.329,-4.013,471.62,14.258C456.206,36.417,439.532,63.48,452.254,87.287C465.36,111.813,497.406,115.827,525.182,114.487" fill="rgba(28, 83, 142, 0.4)" class="triangle-float2"></path><path d="M81.064,758.91C114.124,755.924,140.031,733.437,156.44,704.582C172.626,676.119,179.448,642.056,163.906,613.236C147.634,583.062,115.312,566.334,81.064,564.813C43.669,563.152,5.094,574.062,-15.586,605.263C-38.414,639.705,-44.272,685.749,-22.271,720.725C-1.315,754.04,41.866,762.451,81.064,758.91" fill="rgba(28, 83, 142, 0.4)" class="triangle-float3"></path><path d="M99.098,806.891C144.31,809.546,187.768,782.491,207.972,741.957C226.481,704.824,208.482,663.842,188.532,627.463C167.45,589.019,142.908,545.173,99.098,543.425C53.406,541.602,16.004,578.491,-3.613,619.798C-20.69,655.758,-8.829,695.454,10.328,730.35C30.48,767.058,57.294,804.436,99.098,806.891" fill="rgba(28, 83, 142, 0.4)" class="triangle-float2"></path><path d="M15.604,635.606C30.771,635.866,45.583,630.373,54.183,617.878C64.143,603.407,70.237,584.345,61.294,569.225C52.454,554.28,32.967,552.437,15.604,552.652C-1.26,552.861,-19.831,555.672,-28.167,570.333C-36.44,584.884,-30.072,602.691,-20.75,616.593C-12.587,628.766,0.949,635.355,15.604,635.606" fill="rgba(28, 83, 142, 0.4)" class="triangle-float2"></path><path d="M535.828,730.334C567.622,729.113,592.12,705.049,607.154,677.008C621.262,650.693,625.172,618.695,609.212,593.46C594.127,569.609,563.997,562.518,535.828,564.231C510.815,565.752,490.618,580.879,476.431,601.535C459.382,626.357,441.729,655.531,454.34,682.876C468.449,713.469,502.163,731.627,535.828,730.334" fill="rgba(28, 83, 142, 0.4)" class="triangle-float2"></path><path d="M602.283,831.31C648.293,832.318,688.341,805.017,713.657,766.585C742.309,723.089,763.195,669.448,739.44,623.096C714.059,573.571,657.885,546.942,602.283,549.265C550.284,551.437,506.367,586.965,483.636,633.782C463.502,675.25,475.314,722.369,499.05,761.885C521.936,799.986,557.848,830.337,602.283,831.31" fill="rgba(28, 83, 142, 0.4)" class="triangle-float1"></path><path d="M506.183,668.864C528.181,668.586,548.202,655.83,558.506,636.392C568.215,618.076,564.725,596.318,554.066,578.538C543.742,561.317,526.261,548.933,506.183,549.114C486.387,549.292,470.164,562.537,459.772,579.387C448.719,597.308,441.827,619.052,451.522,637.742C461.869,657.69,483.713,669.148,506.183,668.864" fill="rgba(28, 83, 142, 0.4)" class="triangle-float2"></path></g><defs><mask id="SvgjsMask2278"><rect width="600" height="700" fill="#ffffff"></rect></mask><linearGradient x1="-4.17%" y1="96.43%" x2="104.17%" y2="3.57%" gradientUnits="userSpaceOnUse" id="SvgjsLinearGradient2279"><stop stop-color="rgba(0, 0, 0, 0.83)" offset="0"></stop><stop stop-color="rgba(158, 0, 114, 0)" offset="1"></stop></linearGradient></defs></svg>