<svg width="1573.374951171875px" height="136.19515991210938px" xmlns="http://www.w3.org/2000/svg" viewBox="-536.6874755859375 6.9024200439453125 1573.374951171875 136.19515991210938" style="background: rgb(70, 213, 180);" preserveAspectRatio="xMidYMid"><defs><filter id="editing-crystal" x="-100%" y="-100%" width="300%" height="300%"><feMorphology operator="dilate" radius="2" in="SourceGraphic" result="border"></feMorphology><feFlood flood-color="#ffffff" result="black"></feFlood><feMorphology operator="dilate" radius="2" in="SourceGraphic" result="erode"></feMorphology><feGaussianBlur in="erode" stdDeviation="4" result="blur"></feGaussianBlur><feOffset in="blur" dx="2" dy="2" result="offset"></feOffset><feComposite operator="atop" in="offset" in2="black" result="merge"></feComposite><feComposite operator="in" in="merge" in2="SourceGraphic" result="inner-shadow"></feComposite><feGaussianBlur in="SourceGraphic" stdDeviation="2.5" result="shadow1"></feGaussianBlur><feOffset in="shadow1" dx="0" dy="5" result="shadow"></feOffset><feSpecularLighting in="SourceGraphic" result="specular" surfaceScale="1.5" specularConstant="100" specularExponent="10" lighting-color="#947272"><fePointLight x="250" y="-300" z="-400"></fePointLight></feSpecularLighting><feGaussianBlur in="specular" stdDeviation="1" result="specular2"></feGaussianBlur><feComposite operator="in" in="specular2" in2="SourceAlpha" result="specular3"></feComposite><feMerge result="merge"><feMergeNode in="border"></feMergeNode><feMergeNode in="inner-shadow"></feMergeNode><feMergeNode in="specular3"></feMergeNode></feMerge><feComponentTransfer in="merge" result="final"><feFuncA type="linear" slope="0.9" intercept="0"></feFuncA></feComponentTransfer><feMerge><feMergeNode in="shadow"></feMergeNode><feMergeNode in="final"></feMergeNode></feMerge></filter></defs><g filter="url(#editing-crystal)"><g transform="translate(-320.4549999833107, 100.625)"><path d="M32.41-11.24L32.41-11.24L32.41-11.24Q33.80-9.49 33.80-6.64L33.80-6.64L33.80-6.64Q33.80-2.70 30.88-0.62L30.88-0.62L30.88-0.62Q27.96 1.46 23.36 1.46L23.36 1.46L23.36 1.46Q20.73 1.46 16.72 0.88L16.72 0.88L16.72 0.88Q8.83-0.36 6.42-0.36L6.42-0.36L6.42-0.36Q4.01-0.36 3.07-0.26L3.07-0.26L3.07-0.26Q2.12-0.15 0.58 0L0.58 0L9.56-48.18L41.03-48.18L41.03-48.18Q41.03-43.73 38.87-41.39L38.87-41.39L38.87-41.39Q36.72-39.05 32.48-39.05L32.48-39.05L32.48-39.05Q28.25-39.05 23.94-41.03L23.94-41.03L21.68-28.25L34.67-28.25L34.67-28.25Q34.67-24.38 32.78-22.23L32.78-22.23L32.78-22.23Q30.88-20.07 27.70-20.07L27.70-20.07L27.70-20.07Q24.53-20.07 22.56-20.80L22.56-20.80L22.56-20.80Q20.59-21.54 20.37-21.75L20.37-21.75L17.74-7.96L17.74-7.96Q19.49-7.74 22.78-7.74L22.78-7.74L22.78-7.74Q28.40-7.74 32.41-11.24ZM46.72 0L38.33 0L51.54-48.18L66.80-48.18L70.15-20.66L83.73-48.18L96.51-48.18L97.82-12.12L97.82-12.12Q98.11-4.96 101.62-2.77L101.62-2.77L101.62-2.77Q100.81-1.31 98.48 0.07L98.48 0.07L98.48 0.07Q96.14 1.46 93.04 1.46L93.04 1.46L93.04 1.46Q89.94 1.46 88.11 0.58L88.11 0.58L88.11 0.58Q86.29-0.29 85.26-1.75L85.26-1.75L85.26-1.75Q83.44-4.38 83.44-9.42L83.44-9.42L83.44-31.97L69.06 0L60.01 0L54.90-32.78L46.72 0ZM133.30-48.69L133.30-48.69L133.30-48.69Q151.18-48.69 151.18-36.06L151.18-36.06L151.18-36.06Q151.18-29.13 146.73-24.97L146.73-24.97L146.73-24.97Q142.35-20.80 134.69-20.80L134.69-20.80L134.69-20.80Q131.11-20.80 128.33-22.85L128.33-22.85L128.33-22.85Q127.02-23.72 126.14-24.89L126.14-24.89L126.14-24.89Q131.47-24.89 134.28-28.14L134.28-28.14L134.28-28.14Q137.09-31.39 137.09-37.74L137.09-37.74L137.09-37.74Q137.09-44.09 130.82-44.09L130.82-44.09L129.06-44.09L129.06-44.09Q128.63-44.09 128.26-44.02L128.26-44.02L119.87 0L104.02 0L113.00-47.81L113.00-47.81Q120.81-48.54 125.34-48.62L125.34-48.62L125.34-48.62Q129.87-48.69 133.30-48.69ZM182.06-11.24L182.06-11.24L182.06-11.24Q183.45-9.49 183.45-6.10L183.45-6.10L183.45-6.10Q183.45-2.70 180.86-0.62L180.86-0.62L180.86-0.62Q178.27 1.46 173.74 1.46L173.74 1.46L173.74 1.46Q171.11 1.46 167.02 0.88L167.02 0.88L167.02 0.88Q158.99-0.36 156.69-0.36L156.69-0.36L156.69-0.36Q154.39-0.36 153.45-0.26L153.45-0.26L153.45-0.26Q152.50-0.15 150.96 0L150.96 0L159.80-48.18L175.78-48.18L168.48-8.03L168.48-8.03Q169.43-7.88 170.31-7.88L170.31-7.88L172.13-7.88L172.13-7.88Q178.27-7.88 182.06-11.24ZM188.71-17.81L188.71-17.81L188.71-17.81Q188.71-31.61 195.86-40.30L195.86-40.30L195.86-40.30Q203.45-49.71 216.66-49.71L216.66-49.71L216.66-49.71Q226.23-49.71 231.04-45.08L231.04-45.08L231.04-45.08Q235.86-40.44 235.86-30.66L235.86-30.66L235.86-30.66Q235.86-15.77 228.27-7.08L228.27-7.08L228.27-7.08Q220.75 1.46 208.12 1.46L208.12 1.46L208.12 1.46Q198.27 1.46 193.49-3.47L193.49-3.47L193.49-3.47Q188.71-8.39 188.71-17.81ZM207.90-32.92L207.90-32.92L207.90-32.92Q204.62-19.78 204.62-9.42L204.62-9.42L204.62-9.42Q204.62-6.93 205.46-5.33L205.46-5.33L205.46-5.33Q206.30-3.72 208.52-3.72L208.52-3.72L208.52-3.72Q210.75-3.72 212.14-4.78L212.14-4.78L212.14-4.78Q213.53-5.84 214.62-8.25L214.62-8.25L214.62-8.25Q216.37-12.19 218.01-20.55L218.01-20.55L218.01-20.55Q219.66-28.91 219.80-32.38L219.80-32.38L219.80-32.38Q219.95-35.84 219.95-38.47L219.95-38.47L219.95-38.47Q219.95-41.10 219.15-42.78L219.15-42.78L219.15-42.78Q218.34-44.46 216.19-44.46L216.19-44.46L216.19-44.46Q214.04-44.46 212.58-43.14L212.58-43.14L212.58-43.14Q209.88-40.66 207.90-32.92ZM244.77 0L249.00-21.46L249.00-21.46Q246.89-41.24 239.44-45.48L239.44-45.48L239.44-45.48Q240.97-47.38 243.46-48.44L243.46-48.44L243.46-48.44Q245.94-49.49 248.93-49.49L248.93-49.49L248.93-49.49Q251.92-49.49 254.19-48.44L254.19-48.44L254.19-48.44Q256.45-47.38 257.91-45.11L257.91-45.11L257.91-45.11Q260.68-40.81 260.68-30.51L260.68-30.51L260.68-25.26L260.68-25.26Q265.06-38.11 269.44-43.65L269.44-43.65L269.44-43.65Q273.90-49.35 279.44-49.35L279.44-49.35L279.44-49.35Q281.63-49.35 283.09-48.22L283.09-48.22L283.09-48.22Q284.55-47.08 285.28-45.41L285.28-45.41L285.28-45.41Q279.66-42.92 274.26-35.77L274.26-35.77L274.26-35.77Q268.86-28.62 265.36-18.61L265.36-18.61L261.05 0L244.77 0ZM312.51-11.24L312.51-11.24L312.51-11.24Q313.90-9.49 313.90-6.64L313.90-6.64L313.90-6.64Q313.90-2.70 310.98-0.62L310.98-0.62L310.98-0.62Q308.06 1.46 303.46 1.46L303.46 1.46L303.46 1.46Q300.83 1.46 296.82 0.88L296.82 0.88L296.82 0.88Q288.93-0.36 286.52-0.36L286.52-0.36L286.52-0.36Q284.12-0.36 283.17-0.26L283.17-0.26L283.17-0.26Q282.22-0.15 280.69 0L280.69 0L289.66-48.18L321.13-48.18L321.13-48.18Q321.13-43.73 318.97-41.39L318.97-41.39L318.97-41.39Q316.82-39.05 312.59-39.05L312.59-39.05L312.59-39.05Q308.35-39.05 304.05-41.03L304.05-41.03L301.78-28.25L314.78-28.25L314.78-28.25Q314.78-24.38 312.88-22.23L312.88-22.23L312.88-22.23Q310.98-20.07 307.80-20.07L307.80-20.07L307.80-20.07Q304.63-20.07 302.66-20.80L302.66-20.80L302.66-20.80Q300.69-21.54 300.47-21.75L300.47-21.75L297.84-7.96L297.84-7.96Q299.59-7.74 302.88-7.74L302.88-7.74L302.88-7.74Q308.50-7.74 312.51-11.24ZM351.79-11.24L351.79-11.24L351.79-11.24Q353.17-9.49 353.17-6.64L353.17-6.64L353.17-6.64Q353.17-2.70 350.25-0.62L350.25-0.62L350.25-0.62Q347.33 1.46 342.74 1.46L342.74 1.46L342.74 1.46Q340.11 1.46 336.09 0.88L336.09 0.88L336.09 0.88Q328.21-0.36 325.80-0.36L325.80-0.36L325.80-0.36Q323.39-0.36 322.44-0.26L322.44-0.26L322.44-0.26Q321.49-0.15 319.96 0L319.96 0L328.94-48.18L360.40-48.18L360.40-48.18Q360.40-43.73 358.25-41.39L358.25-41.39L358.25-41.39Q356.09-39.05 351.86-39.05L351.86-39.05L351.86-39.05Q347.63-39.05 343.32-41.03L343.32-41.03L341.06-28.25L354.05-28.25L354.05-28.25Q354.05-24.38 352.15-22.23L352.15-22.23L352.15-22.23Q350.25-20.07 347.08-20.07L347.08-20.07L347.08-20.07Q343.90-20.07 341.93-20.80L341.93-20.80L341.93-20.80Q339.96-21.54 339.74-21.75L339.74-21.75L337.11-7.96L337.11-7.96Q338.87-7.74 342.15-7.74L342.15-7.74L342.15-7.74Q347.77-7.74 351.79-11.24ZM381.13 0L372.74 0L385.95-48.18L401.21-48.18L404.57-20.66L418.14-48.18L430.92-48.18L432.23-12.12L432.23-12.12Q432.52-4.96 436.03-2.77L436.03-2.77L436.03-2.77Q435.23-1.31 432.89 0.07L432.89 0.07L432.89 0.07Q430.55 1.46 427.45 1.46L427.45 1.46L427.45 1.46Q424.35 1.46 422.52 0.58L422.52 0.58L422.52 0.58Q420.70-0.29 419.68-1.75L419.68-1.75L419.68-1.75Q417.85-4.38 417.85-9.42L417.85-9.42L417.85-31.97L403.47 0L394.42 0L389.31-32.78L381.13 0ZM471.22 1.46L471.22 1.46L471.22 1.46Q461.87 1.46 461.00-11.83L461.00-11.83L448.44-11.83L448.44-11.83Q446.98-8.47 445.96-5.55L445.96-5.55L444.06 0L433.84 0L456.83-48.18L472.53-48.18L475.60-12.70L475.60-12.70Q476.33-5.04 479.25-2.77L479.25-2.77L479.25-2.77Q477.13 1.46 471.22 1.46ZM454.72-26.43L450.70-17.15L460.78-17.15L459.90-35.92L459.90-37.89L454.72-26.43ZM491.00 0L482.97 0L491.73-48.18L507.42-48.18L518.81-15.04L524.87-48.18L532.97-48.11L524.07 0L507.35 0L496.84-31.90L491.00 0ZM566.85 1.46L566.85 1.46L566.85 1.46Q557.50 1.46 556.63-11.83L556.63-11.83L544.07-11.83L544.07-11.83Q542.61-8.47 541.59-5.55L541.59-5.55L539.69 0L529.47 0L552.46-48.18L568.16-48.18L571.23-12.70L571.23-12.70Q571.96-5.04 574.88-2.77L574.88-2.77L574.88-2.77Q572.76 1.46 566.85 1.46ZM550.35-26.43L546.33-17.15L556.41-17.15L555.53-35.92L555.53-37.89L550.35-26.43ZM607.87-23.51L622.62-24.82L622.62-24.82Q617.36-13.29 617.36 0.07L617.36 0.07L617.36 0.07Q615.39 1.46 612.51 1.46L612.51 1.46L612.51 1.46Q609.62 1.46 607.80 0.11L607.80 0.11L607.80 0.11Q605.97-1.24 605.61-2.63L605.61-2.63L605.61-2.63Q603.78-0.73 600.83 0.36L600.83 0.36L600.83 0.36Q597.87 1.46 594.73 1.46L594.73 1.46L594.73 1.46Q591.59 1.46 588.85 0.44L588.85 0.44L588.85 0.44Q586.12-0.58 584-2.85L584-2.85L584-2.85Q579.33-7.81 579.33-17.23L579.33-17.23L579.33-17.23Q579.33-31.83 587.14-40.59L587.14-40.59L587.14-40.59Q595.17-49.64 609.40-49.64L609.40-49.64L609.40-49.64Q619.26-49.64 622.76-44.53L622.76-44.53L622.76-44.53Q623.86-42.92 623.86-40.99L623.86-40.99L623.86-40.99Q623.86-39.05 623.02-37.41L623.02-37.41L623.02-37.41Q622.18-35.77 620.87-34.46L620.87-34.46L620.87-34.46Q617.73-31.54 613.86-31.54L613.86-31.54L613.86-31.54Q612.32-31.54 610.86-32.05L610.86-32.05L610.86-32.05Q611.16-34.24 611.16-36.79L611.16-36.79L611.16-36.79Q611.16-39.35 610.97-40.52L610.97-40.52L610.97-40.52Q610.79-41.68 610.35-42.63L610.35-42.63L610.35-42.63Q609.40-44.60 607.32-44.60L607.32-44.60L607.32-44.60Q605.24-44.60 602.94-42.38L602.94-42.38L602.94-42.38Q600.64-40.15 598.82-36.50L598.82-36.50L598.82-36.50Q594.80-28.32 594.80-18.47L594.80-18.47L594.80-18.47Q594.80-13.94 596.56-10.73L596.56-10.73L596.56-10.73Q598.45-7.23 601.81-7.23L601.81-7.23L601.81-7.23Q602.98-7.23 604.04-7.81L604.04-7.81L604.04-7.81Q605.10-8.39 605.54-8.83L605.54-8.83L607.87-23.51ZM657.37-11.24L657.37-11.24L657.37-11.24Q658.75-9.49 658.75-6.64L658.75-6.64L658.75-6.64Q658.75-2.70 655.83-0.62L655.83-0.62L655.83-0.62Q652.91 1.46 648.31 1.46L648.31 1.46L648.31 1.46Q645.69 1.46 641.67 0.88L641.67 0.88L641.67 0.88Q633.79-0.36 631.38-0.36L631.38-0.36L631.38-0.36Q628.97-0.36 628.02-0.26L628.02-0.26L628.02-0.26Q627.07-0.15 625.54 0L625.54 0L634.52-48.18L665.98-48.18L665.98-48.18Q665.98-43.73 663.83-41.39L663.83-41.39L663.83-41.39Q661.67-39.05 657.44-39.05L657.44-39.05L657.44-39.05Q653.20-39.05 648.90-41.03L648.90-41.03L646.63-28.25L659.63-28.25L659.63-28.25Q659.63-24.38 657.73-22.23L657.73-22.23L657.73-22.23Q655.83-20.07 652.66-20.07L652.66-20.07L652.66-20.07Q649.48-20.07 647.51-20.80L647.51-20.80L647.51-20.80Q645.54-21.54 645.32-21.75L645.32-21.75L642.69-7.96L642.69-7.96Q644.44-7.74 647.73-7.74L647.73-7.74L647.73-7.74Q653.35-7.74 657.37-11.24ZM671.67 0L663.28 0L676.49-48.18L691.75-48.18L695.11-20.66L708.68-48.18L721.46-48.18L722.77-12.12L722.77-12.12Q723.07-4.96 726.57-2.77L726.57-2.77L726.57-2.77Q725.77-1.31 723.43 0.07L723.43 0.07L723.43 0.07Q721.09 1.46 717.99 1.46L717.99 1.46L717.99 1.46Q714.89 1.46 713.06 0.58L713.06 0.58L713.06 0.58Q711.24-0.29 710.22-1.75L710.22-1.75L710.22-1.75Q708.39-4.38 708.39-9.42L708.39-9.42L708.39-31.97L694.01 0L684.96 0L679.85-32.78L671.67 0ZM760.88-11.24L760.88-11.24L760.88-11.24Q762.27-9.49 762.27-6.64L762.27-6.64L762.27-6.64Q762.27-2.70 759.35-0.62L759.35-0.62L759.35-0.62Q756.43 1.46 751.83 1.46L751.83 1.46L751.83 1.46Q749.20 1.46 745.18 0.88L745.18 0.88L745.18 0.88Q737.30-0.36 734.89-0.36L734.89-0.36L734.89-0.36Q732.48-0.36 731.53-0.26L731.53-0.26L731.53-0.26Q730.58-0.15 729.05 0L729.05 0L738.03-48.18L769.49-48.18L769.49-48.18Q769.49-43.73 767.34-41.39L767.34-41.39L767.34-41.39Q765.19-39.05 760.95-39.05L760.95-39.05L760.95-39.05Q756.72-39.05 752.41-41.03L752.41-41.03L750.15-28.25L763.14-28.25L763.14-28.25Q763.14-24.38 761.24-22.23L761.24-22.23L761.24-22.23Q759.35-20.07 756.17-20.07L756.17-20.07L756.17-20.07Q753.00-20.07 751.02-20.80L751.02-20.80L751.02-20.80Q749.05-21.54 748.83-21.75L748.83-21.75L746.21-7.96L746.21-7.96Q747.96-7.74 751.24-7.74L751.24-7.74L751.24-7.74Q756.86-7.74 760.88-11.24ZM776.50 0L768.47 0L777.23-48.18L792.93-48.18L804.31-15.04L810.37-48.18L818.48-48.11L809.57 0L792.85 0L782.34-31.90L776.50 0ZM826.14-35.55L826.14-35.55L826.14-35.55Q823.66-37.45 823.66-41.50L823.66-41.50L823.66-41.50Q823.66-45.55 826.32-47.67L826.32-47.67L826.32-47.67Q828.99-49.79 833.59-49.79L833.59-49.79L833.59-49.79Q836.51-49.79 843.44-48.76L843.44-48.76L848.41-48.03L848.41-48.03Q850.89-47.74 853.48-47.74L853.48-47.74L853.48-47.74Q856.07-47.74 857.82-48.84L857.82-48.84L857.82-48.84Q860.45-46.50 860.45-43.14L860.45-43.14L860.45-43.14Q860.45-39.78 857.46-37.38L857.46-37.38L857.46-37.38Q854.39-34.82 850.45-34.82L850.45-34.82L850.45-34.82Q848.55-34.82 845.49-35.33L845.49-35.33L845.49-35.33Q841.91-24.09 841.91-16.28L841.91-16.28L841.91-16.28Q841.91-8.47 845.85-4.38L845.85-4.38L845.85-4.38Q844.03-1.09 841.33 0.18L841.33 0.18L841.33 0.18Q838.62 1.46 834.57 1.46L834.57 1.46L834.57 1.46Q830.52 1.46 828.00-0.77L828.00-0.77L828.00-0.77Q825.48-2.99 825.48-7.59L825.48-7.59L825.48-7.59Q825.48-12.92 828.40-21.68L828.40-21.68L828.40-21.68Q831.32-30.37 835.70-37.01L835.70-37.01L835.70-37.01Q833.59-37.23 831.40-37.23L831.40-37.23L831.40-37.23Q826.87-37.23 826.14-35.55ZM901.62-33.73L901.62-33.73L901.62-33.73Q902.72-35.92 902.72-37.96L902.72-37.96L902.72-37.96Q902.72-40.00 902.50-41.14L902.50-41.14L902.50-41.14Q902.28-42.27 901.77-43.14L901.77-43.14L901.77-43.14Q900.67-45.04 898.48-45.04L898.48-45.04L898.48-45.04Q895.78-45.04 893.59-43.07L893.59-43.07L893.59-43.07Q891.26-41.03 891.26-37.81L891.26-37.81L891.26-37.81Q891.26-35.77 892.68-34.20L892.68-34.20L892.68-34.20Q894.10-32.63 896.29-31.17L896.29-31.17L896.29-31.17Q898.48-29.71 900.97-28.25L900.97-28.25L900.97-28.25Q903.45-26.79 905.64-25.04L905.64-25.04L905.64-25.04Q910.68-21.02 910.68-15.62L910.68-15.62L910.68-15.62Q910.68-11.97 908.74-8.87L908.74-8.87L908.74-8.87Q906.81-5.77 903.59-3.50L903.59-3.50L903.59-3.50Q896.59 1.46 887.32 1.46L887.32 1.46L887.32 1.46Q879.80 1.46 875.93-0.99L875.93-0.99L875.93-0.99Q872.06-3.43 872.06-7.15L872.06-7.15L872.06-7.15Q872.06-13.80 877.24-15.48L877.24-15.48L877.24-15.48Q878.70-15.99 880.93-15.99L880.93-15.99L880.93-15.99Q883.15-15.99 885.71-15.04L885.71-15.04L885.71-15.04Q884.54-12.04 884.54-9.34L884.54-9.34L884.54-9.34Q884.54-3.50 888.70-3.50L888.70-3.50L888.70-3.50Q891.40-3.50 893.63-5.47L893.63-5.47L893.63-5.47Q895.86-7.45 895.86-9.67L895.86-9.67L895.86-9.67Q895.86-11.90 894.43-13.50L894.43-13.50L894.43-13.50Q893.01-15.11 890.89-16.39L890.89-16.39L890.89-16.39Q888.78-17.67 886.33-18.91L886.33-18.91L886.33-18.91Q883.88-20.15 881.77-21.90L881.77-21.90L881.77-21.90Q876.80-25.91 876.80-32.34L876.80-32.34L876.80-32.34Q876.80-36.50 878.85-39.75L878.85-39.75L878.85-39.75Q880.89-43.00 884.18-45.19L884.18-45.19L884.18-45.19Q890.75-49.64 898.81-49.64L898.81-49.64L898.81-49.64Q906.88-49.64 910.78-47.23L910.78-47.23L910.78-47.23Q914.69-44.82 914.69-40.73L914.69-40.73L914.69-40.73Q914.69-37.16 911.92-34.89L911.92-34.89L911.92-34.89Q909.51-33.00 906.59-33.00L906.59-33.00L906.59-33.00Q903.67-33.00 901.62-33.73ZM923.16 0L927.39-21.46L927.39-21.46Q925.28-41.24 917.83-45.48L917.83-45.48L917.83-45.48Q919.36-47.38 921.84-48.44L921.84-48.44L921.84-48.44Q924.33-49.49 927.32-49.49L927.32-49.49L927.32-49.49Q930.31-49.49 932.58-48.44L932.58-48.44L932.58-48.44Q934.84-47.38 936.30-45.11L936.30-45.11L936.30-45.11Q939.07-40.81 939.07-30.51L939.07-30.51L939.07-25.26L939.07-25.26Q943.45-38.11 947.83-43.65L947.83-43.65L947.83-43.65Q952.29-49.35 957.83-49.35L957.83-49.35L957.83-49.35Q960.02-49.35 961.48-48.22L961.48-48.22L961.48-48.22Q962.94-47.08 963.67-45.41L963.67-45.41L963.67-45.41Q958.05-42.92 952.65-35.77L952.65-35.77L952.65-35.77Q947.25-28.62 943.74-18.61L943.74-18.61L939.44 0L923.16 0ZM987.54-33.73L987.54-33.73L987.54-33.73Q988.64-35.92 988.64-37.96L988.64-37.96L988.64-37.96Q988.64-40.00 988.42-41.14L988.42-41.14L988.42-41.14Q988.20-42.27 987.69-43.14L987.69-43.14L987.69-43.14Q986.60-45.04 984.41-45.04L984.41-45.04L984.41-45.04Q981.70-45.04 979.51-43.07L979.51-43.07L979.51-43.07Q977.18-41.03 977.18-37.81L977.18-37.81L977.18-37.81Q977.18-35.77 978.60-34.20L978.60-34.20L978.60-34.20Q980.03-32.63 982.22-31.17L982.22-31.17L982.22-31.17Q984.41-29.71 986.89-28.25L986.89-28.25L986.89-28.25Q989.37-26.79 991.56-25.04L991.56-25.04L991.56-25.04Q996.60-21.02 996.60-15.62L996.60-15.62L996.60-15.62Q996.60-11.97 994.66-8.87L994.66-8.87L994.66-8.87Q992.73-5.77 989.52-3.50L989.52-3.50L989.52-3.50Q982.51 1.46 973.24 1.46L973.24 1.46L973.24 1.46Q965.72 1.46 961.85-0.99L961.85-0.99L961.85-0.99Q957.98-3.43 957.98-7.15L957.98-7.15L957.98-7.15Q957.98-13.80 963.16-15.48L963.16-15.48L963.16-15.48Q964.62-15.99 966.85-15.99L966.85-15.99L966.85-15.99Q969.08-15.99 971.63-15.04L971.63-15.04L971.63-15.04Q970.46-12.04 970.46-9.34L970.46-9.34L970.46-9.34Q970.46-3.50 974.62-3.50L974.62-3.50L974.62-3.50Q977.32-3.50 979.55-5.47L979.55-5.47L979.55-5.47Q981.78-7.45 981.78-9.67L981.78-9.67L981.78-9.67Q981.78-11.90 980.35-13.50L980.35-13.50L980.35-13.50Q978.93-15.11 976.81-16.39L976.81-16.39L976.81-16.39Q974.70-17.67 972.25-18.91L972.25-18.91L972.25-18.91Q969.81-20.15 967.69-21.90L967.69-21.90L967.69-21.90Q962.72-25.91 962.72-32.34L962.72-32.34L962.72-32.34Q962.72-36.50 964.77-39.75L964.77-39.75L964.77-39.75Q966.81-43.00 970.10-45.19L970.10-45.19L970.10-45.19Q976.67-49.64 984.73-49.64L984.73-49.64L984.73-49.64Q992.80-49.64 996.71-47.23L996.71-47.23L996.71-47.23Q1000.61-44.82 1000.61-40.73L1000.61-40.73L1000.61-40.73Q1000.61-37.16 997.84-34.89L997.84-34.89L997.84-34.89Q995.43-33.00 992.51-33.00L992.51-33.00L992.51-33.00Q989.59-33.00 987.54-33.73ZM1007.98-35.55L1007.98-35.55L1007.98-35.55Q1005.50-37.45 1005.50-41.50L1005.50-41.50L1005.50-41.50Q1005.50-45.55 1008.17-47.67L1008.17-47.67L1008.17-47.67Q1010.83-49.79 1015.43-49.79L1015.43-49.79L1015.43-49.79Q1018.35-49.79 1025.29-48.76L1025.29-48.76L1030.25-48.03L1030.25-48.03Q1032.73-47.74 1035.32-47.74L1035.32-47.74L1035.32-47.74Q1037.91-47.74 1039.67-48.84L1039.67-48.84L1039.67-48.84Q1042.29-46.50 1042.29-43.14L1042.29-43.14L1042.29-43.14Q1042.29-39.78 1039.30-37.38L1039.30-37.38L1039.30-37.38Q1036.24-34.82 1032.29-34.82L1032.29-34.82L1032.29-34.82Q1030.40-34.82 1027.33-35.33L1027.33-35.33L1027.33-35.33Q1023.75-24.09 1023.75-16.28L1023.75-16.28L1023.75-16.28Q1023.75-8.47 1027.69-4.38L1027.69-4.38L1027.69-4.38Q1025.87-1.09 1023.17 0.18L1023.17 0.18L1023.17 0.18Q1020.47 1.46 1016.42 1.46L1016.42 1.46L1016.42 1.46Q1012.36 1.46 1009.85-0.77L1009.85-0.77L1009.85-0.77Q1007.33-2.99 1007.33-7.59L1007.33-7.59L1007.33-7.59Q1007.33-12.92 1010.25-21.68L1010.25-21.68L1010.25-21.68Q1013.17-30.37 1017.55-37.01L1017.55-37.01L1017.55-37.01Q1015.43-37.23 1013.24-37.23L1013.24-37.23L1013.24-37.23Q1008.71-37.23 1007.98-35.55ZM1071.13-11.24L1071.13-11.24L1071.13-11.24Q1072.52-9.49 1072.52-6.64L1072.52-6.64L1072.52-6.64Q1072.52-2.70 1069.60-0.62L1069.60-0.62L1069.60-0.62Q1066.68 1.46 1062.08 1.46L1062.08 1.46L1062.08 1.46Q1059.45 1.46 1055.43 0.88L1055.43 0.88L1055.43 0.88Q1047.55-0.36 1045.14-0.36L1045.14-0.36L1045.14-0.36Q1042.73-0.36 1041.78-0.26L1041.78-0.26L1041.78-0.26Q1040.83-0.15 1039.30 0L1039.30 0L1048.28-48.18L1079.74-48.18L1079.74-48.18Q1079.74-43.73 1077.59-41.39L1077.59-41.39L1077.59-41.39Q1075.44-39.05 1071.20-39.05L1071.20-39.05L1071.20-39.05Q1066.97-39.05 1062.66-41.03L1062.66-41.03L1060.40-28.25L1073.39-28.25L1073.39-28.25Q1073.39-24.38 1071.49-22.23L1071.49-22.23L1071.49-22.23Q1069.60-20.07 1066.42-20.07L1066.42-20.07L1066.42-20.07Q1063.25-20.07 1061.27-20.80L1061.27-20.80L1061.27-20.80Q1059.30-21.54 1059.08-21.75L1059.08-21.75L1056.46-7.96L1056.46-7.96Q1058.21-7.74 1061.49-7.74L1061.49-7.74L1061.49-7.74Q1067.11-7.74 1071.13-11.24ZM1085.44 0L1077.04 0L1090.25-48.18L1105.51-48.18L1108.87-20.66L1122.45-48.18L1135.22-48.18L1136.54-12.12L1136.54-12.12Q1136.83-4.96 1140.33-2.77L1140.33-2.77L1140.33-2.77Q1139.53-1.31 1137.19 0.07L1137.19 0.07L1137.19 0.07Q1134.86 1.46 1131.76 1.46L1131.76 1.46L1131.76 1.46Q1128.65 1.46 1126.83 0.58L1126.83 0.58L1126.83 0.58Q1125.00-0.29 1123.98-1.75L1123.98-1.75L1123.98-1.75Q1122.16-4.38 1122.16-9.42L1122.16-9.42L1122.16-31.97L1107.78 0L1098.72 0L1093.61-32.78L1085.44 0Z" fill="#000000" stroke="#000000" stroke-width="1.5"></path></g></g><style>text {
  font-size: 64px;
  font-family: Arial Black;
  dominant-baseline: central;
  text-anchor: middle;
}</style></svg>